<svg width="25" height="25" viewBox="0 0 25 25" fill="none" xmlns="http://www.w3.org/2000/svg">
<path d="M22.1504 21.5988L17.6713 17.1197C19.1872 15.4596 19.9931 13.2722 19.9166 11.0256C19.8402 8.77887 18.8874 6.65134 17.2622 5.0982C15.637 3.54506 13.4685 2.68969 11.2207 2.71511C8.97283 2.74053 6.82421 3.64473 5.23457 5.23423C3.64493 6.82373 2.74054 8.97226 2.71492 11.2201C2.68929 13.4679 3.54447 15.6365 5.09746 17.2619C6.65045 18.8872 8.7779 19.8401 11.0246 19.9168C13.2713 19.9935 15.4587 19.1877 17.1189 17.6721L21.5981 22.1512C21.6713 22.2244 21.7707 22.2655 21.8742 22.2655C21.9778 22.2654 22.0771 22.2243 22.1503 22.151C22.2235 22.0778 22.2647 21.9785 22.2647 21.8749C22.2647 21.7714 22.2236 21.672 22.1504 21.5988ZM3.51552 11.3281C3.51552 9.78292 3.97371 8.27246 4.83216 6.98771C5.6906 5.70295 6.91074 4.70161 8.33828 4.1103C9.76583 3.51899 11.3367 3.36428 12.8521 3.66573C14.3676 3.96717 15.7596 4.71124 16.8522 5.80383C17.9448 6.89643 18.6889 8.28847 18.9903 9.80395C19.2918 11.3194 19.1371 12.8902 18.5458 14.3178C17.9545 15.7453 16.9531 16.9655 15.6684 17.8239C14.3836 18.6824 12.8731 19.1406 11.328 19.1406C9.25671 19.1382 7.27093 18.3144 5.80632 16.8498C4.3417 15.3851 3.51785 13.3994 3.51552 11.3281Z" fill="black"/>
</svg>
